<svg id="visual" viewBox="0 0 900 600" width="900" height="600" xmlns="http://www.w3.org/2000/svg" xmlns:xlink="http://www.w3.org/1999/xlink" version="1.1"><g stroke-width="1" stroke-linejoin="bevel"><path d="M527 292L571 311L565 216Z" fill="#ffbb3d" stroke="#ffbb3d"></path><path d="M565 216L485 203L527 292Z" fill="#ffbb3d" stroke="#ffbb3d"></path><path d="M361 288L485 371L527 292Z" fill="#f80088" stroke="#f80088"></path><path d="M527 292L485 371L571 311Z" fill="#f80088" stroke="#f80088"></path><path d="M565 216L538 118L485 203Z" fill="#ffbb3d" stroke="#ffbb3d"></path><path d="M672 388L714 287L571 311Z" fill="#fad548" stroke="#fad548"></path><path d="M571 311L714 287L565 216Z" fill="#ff4960" stroke="#ff4960"></path><path d="M565 216L602 107L538 118Z" fill="#ff8445" stroke="#ff8445"></path><path d="M485 371L631 404L571 311Z" fill="#ffbb3d" stroke="#ffbb3d"></path><path d="M405 87L415 219L485 203Z" fill="#ffa03d" stroke="#ffa03d"></path><path d="M485 203L415 219L527 292Z" fill="#ea00a1" stroke="#ea00a1"></path><path d="M716 165L602 107L565 216Z" fill="#ffa03d" stroke="#ffa03d"></path><path d="M631 404L672 388L571 311Z" fill="#ffa03d" stroke="#ffa03d"></path><path d="M361 288L433 384L485 371Z" fill="#ff4960" stroke="#ff4960"></path><path d="M485 371L614 465L631 404Z" fill="#ff6752" stroke="#ff6752"></path><path d="M714 287L716 165L565 216Z" fill="#f80088" stroke="#f80088"></path><path d="M415 219L361 288L527 292Z" fill="#d200bd" stroke="#d200bd"></path><path d="M513 494L614 465L485 371Z" fill="#d200bd" stroke="#d200bd"></path><path d="M631 404L614 465L672 388Z" fill="#ffbb3d" stroke="#ffbb3d"></path><path d="M716 165L696 77L602 107Z" fill="#ff8445" stroke="#ff8445"></path><path d="M483 0L405 87L538 118Z" fill="#ffa03d" stroke="#ffa03d"></path><path d="M781 483L769 378L672 388Z" fill="#ffa03d" stroke="#ffa03d"></path><path d="M672 388L769 378L714 287Z" fill="#d200bd" stroke="#d200bd"></path><path d="M714 287L806 270L716 165Z" fill="#ff8445" stroke="#ff8445"></path><path d="M716 165L775 119L696 77Z" fill="#ff4960" stroke="#ff4960"></path><path d="M389 509L513 494L433 384Z" fill="#d200bd" stroke="#d200bd"></path><path d="M433 384L513 494L485 371Z" fill="#ff8445" stroke="#ff8445"></path><path d="M603 0L538 118L602 107Z" fill="#ffbb3d" stroke="#ffbb3d"></path><path d="M538 118L405 87L485 203Z" fill="#ff6752" stroke="#ff6752"></path><path d="M415 219L324 198L361 288Z" fill="#fad548" stroke="#fad548"></path><path d="M769 378L806 270L714 287Z" fill="#ff4960" stroke="#ff4960"></path><path d="M405 87L324 198L415 219Z" fill="#f80088" stroke="#f80088"></path><path d="M835 202L775 119L716 165Z" fill="#ff8445" stroke="#ff8445"></path><path d="M562 600L665 509L614 465Z" fill="#ff2672" stroke="#ff2672"></path><path d="M614 465L665 509L672 388Z" fill="#ff4960" stroke="#ff4960"></path><path d="M700 0L603 0L696 77Z" fill="#d200bd" stroke="#d200bd"></path><path d="M696 77L603 0L602 107Z" fill="#ff2672" stroke="#ff2672"></path><path d="M603 0L483 0L538 118Z" fill="#ff2672" stroke="#ff2672"></path><path d="M900 218L835 202L806 270Z" fill="#ff8445" stroke="#ff8445"></path><path d="M806 270L835 202L716 165Z" fill="#ff6752" stroke="#ff6752"></path><path d="M483 0L433 0L405 87Z" fill="#ff4960" stroke="#ff4960"></path><path d="M405 87L281 129L324 198Z" fill="#ff2672" stroke="#ff2672"></path><path d="M827 0L696 77L775 119Z" fill="#ffa03d" stroke="#ffa03d"></path><path d="M827 0L700 0L696 77Z" fill="#ffbb3d" stroke="#ffbb3d"></path><path d="M324 198L276 331L361 288Z" fill="#ff8445" stroke="#ff8445"></path><path d="M361 288L288 386L433 384Z" fill="#ff8445" stroke="#ff8445"></path><path d="M288 386L389 509L433 384Z" fill="#d200bd" stroke="#d200bd"></path><path d="M513 494L562 600L614 465Z" fill="#ff4960" stroke="#ff4960"></path><path d="M276 331L288 386L361 288Z" fill="#ea00a1" stroke="#ea00a1"></path><path d="M665 509L781 483L672 388Z" fill="#ff4960" stroke="#ff4960"></path><path d="M900 371L900 303L806 270Z" fill="#ea00a1" stroke="#ea00a1"></path><path d="M284 0L281 129L405 87Z" fill="#ff2672" stroke="#ff2672"></path><path d="M324 198L228 238L276 331Z" fill="#ea00a1" stroke="#ea00a1"></path><path d="M468 600L562 600L513 494Z" fill="#ff4960" stroke="#ff4960"></path><path d="M665 509L676 600L781 483Z" fill="#ffbb3d" stroke="#ffbb3d"></path><path d="M900 371L806 270L769 378Z" fill="#ff2672" stroke="#ff2672"></path><path d="M900 303L900 218L806 270Z" fill="#ffa03d" stroke="#ffa03d"></path><path d="M900 78L827 0L775 119Z" fill="#f80088" stroke="#f80088"></path><path d="M281 129L228 238L324 198Z" fill="#fad548" stroke="#fad548"></path><path d="M276 331L217 377L288 386Z" fill="#f80088" stroke="#f80088"></path><path d="M389 509L468 600L513 494Z" fill="#ffbb3d" stroke="#ffbb3d"></path><path d="M781 483L900 371L769 378Z" fill="#ff8445" stroke="#ff8445"></path><path d="M562 600L676 600L665 509Z" fill="#ea00a1" stroke="#ea00a1"></path><path d="M781 483L900 479L900 371Z" fill="#ea00a1" stroke="#ea00a1"></path><path d="M186 294L217 377L276 331Z" fill="#f80088" stroke="#f80088"></path><path d="M288 386L317 539L389 509Z" fill="#ea00a1" stroke="#ea00a1"></path><path d="M389 509L397 600L468 600Z" fill="#ff2672" stroke="#ff2672"></path><path d="M205 504L317 539L288 386Z" fill="#ff2672" stroke="#ff2672"></path><path d="M900 78L775 119L835 202Z" fill="#ff4960" stroke="#ff4960"></path><path d="M317 539L397 600L389 509Z" fill="#fad548" stroke="#fad548"></path><path d="M228 238L186 294L276 331Z" fill="#ff6752" stroke="#ff6752"></path><path d="M115 221L186 294L228 238Z" fill="#ff6752" stroke="#ff6752"></path><path d="M900 218L900 78L835 202Z" fill="#ff8445" stroke="#ff8445"></path><path d="M433 0L284 0L405 87Z" fill="#ff8445" stroke="#ff8445"></path><path d="M281 129L192 86L228 238Z" fill="#ff2672" stroke="#ff2672"></path><path d="M818 600L900 479L781 483Z" fill="#ab04d9" stroke="#ab04d9"></path><path d="M284 0L192 86L281 129Z" fill="#ffa03d" stroke="#ffa03d"></path><path d="M226 600L321 600L317 539Z" fill="#f80088" stroke="#f80088"></path><path d="M317 539L321 600L397 600Z" fill="#ff8445" stroke="#ff8445"></path><path d="M676 600L818 600L781 483Z" fill="#fad548" stroke="#fad548"></path><path d="M900 78L900 0L827 0Z" fill="#f80088" stroke="#f80088"></path><path d="M105 377L205 504L217 377Z" fill="#f80088" stroke="#f80088"></path><path d="M217 377L205 504L288 386Z" fill="#ab04d9" stroke="#ab04d9"></path><path d="M284 0L220 0L192 86Z" fill="#d200bd" stroke="#d200bd"></path><path d="M115 221L136 334L186 294Z" fill="#ff8445" stroke="#ff8445"></path><path d="M186 294L136 334L217 377Z" fill="#ff2672" stroke="#ff2672"></path><path d="M112 93L115 221L192 86Z" fill="#ff2672" stroke="#ff2672"></path><path d="M192 86L115 221L228 238Z" fill="#ffa03d" stroke="#ffa03d"></path><path d="M0 274L105 377L136 334Z" fill="#ff8445" stroke="#ff8445"></path><path d="M136 334L105 377L217 377Z" fill="#f80088" stroke="#f80088"></path><path d="M818 600L900 600L900 479Z" fill="#ffbb3d" stroke="#ffbb3d"></path><path d="M205 504L226 600L317 539Z" fill="#fad548" stroke="#fad548"></path><path d="M60 600L226 600L205 504Z" fill="#ab04d9" stroke="#ab04d9"></path><path d="M78 0L112 93L192 86Z" fill="#ff6752" stroke="#ff6752"></path><path d="M0 412L75 463L105 377Z" fill="#ff4960" stroke="#ff4960"></path><path d="M0 274L136 334L115 221Z" fill="#fad548" stroke="#fad548"></path><path d="M105 377L75 463L205 504Z" fill="#d200bd" stroke="#d200bd"></path><path d="M220 0L78 0L192 86Z" fill="#ff6752" stroke="#ff6752"></path><path d="M0 169L0 274L115 221Z" fill="#ffa03d" stroke="#ffa03d"></path><path d="M0 169L115 221L112 93Z" fill="#d200bd" stroke="#d200bd"></path><path d="M0 124L0 169L112 93Z" fill="#ab04d9" stroke="#ab04d9"></path><path d="M78 0L0 124L112 93Z" fill="#ff8445" stroke="#ff8445"></path><path d="M0 274L0 412L105 377Z" fill="#f80088" stroke="#f80088"></path><path d="M75 463L60 600L205 504Z" fill="#ff2672" stroke="#ff2672"></path><path d="M0 504L60 600L75 463Z" fill="#f80088" stroke="#f80088"></path><path d="M0 412L0 504L75 463Z" fill="#ffa03d" stroke="#ffa03d"></path><path d="M78 0L0 0L0 124Z" fill="#ff2672" stroke="#ff2672"></path><path d="M0 504L0 600L60 600Z" fill="#ff8445" stroke="#ff8445"></path></g></svg>